<?xml version="1.0" encoding="UTF-8" standalone="no"?>
<svg
   width="140"
   height="140"
   viewBox="0 0 154.72208 139.05519"
   version="1.1"
   id="svg4770"
   sodipodi:docname="favicon.svg"
   inkscape:version="1.1 (c4e8f9ed74, 2021-05-24)"
   inkscape:export-filename="/home/kuon/repos/vac_engine/assets/static/favicon.png"
   inkscape:export-xdpi="837.97998"
   inkscape:export-ydpi="837.97998"
   xmlns:inkscape="http://www.inkscape.org/namespaces/inkscape"
   xmlns:sodipodi="http://sodipodi.sourceforge.net/DTD/sodipodi-0.dtd"
   xmlns="http://www.w3.org/2000/svg"
   xmlns:svg="http://www.w3.org/2000/svg"
   xmlns:rdf="http://www.w3.org/1999/02/22-rdf-syntax-ns#"
   xmlns:cc="http://creativecommons.org/ns#"
   xmlns:dc="http://purl.org/dc/elements/1.1/">
  <defs
     id="defs4764" />
  <sodipodi:namedview
     id="base"
     pagecolor="#ffffff"
     bordercolor="#666666"
     borderopacity="1.0"
     inkscape:pageopacity="0.0"
     inkscape:pageshadow="2"
     inkscape:zoom="4.54"
     inkscape:cx="-21.9163"
     inkscape:cy="110.90308"
     inkscape:document-units="px"
     inkscape:current-layer="text3186"
     showgrid="true"
     inkscape:window-width="2556"
     inkscape:window-height="1394"
     inkscape:window-x="0"
     inkscape:window-y="0"
     inkscape:window-maximized="1"
     units="px"
     inkscape:snap-page="false"
     showguides="true"
     inkscape:guide-bbox="true"
     inkscape:lockguides="true"
     inkscape:document-rotation="0"
     inkscape:pagecheckerboard="0"
     fit-margin-top="1"
     fit-margin-left="1"
     fit-margin-right="1"
     fit-margin-bottom="1"
     lock-margins="true" />
  <metadata
     id="metadata9521">
    <rdf:RDF>
      <cc:Work
         rdf:about="">
        <dc:format>image/svg+xml</dc:format>
        <dc:type
           rdf:resource="http://purl.org/dc/dcmitype/StillImage" />
      </cc:Work>
    </rdf:RDF>
  </metadata>
  <circle
     style="fill:#eff0f6;fill-opacity:1;stroke-width:8.35395;stroke-linecap:round;stroke-linejoin:round;stop-color:#000000"
     id="path3529"
     cx="77.361038"
     cy="69.527596"
     r="64.823303" />
  <g
     aria-label="V"
     id="text3186"
     style="font-weight:bold;font-size:139.141px;line-height:1.25;font-family:Constantia;-inkscape-font-specification:'Constantia, Bold';letter-spacing:0px;word-spacing:0px;stroke-width:1.10516">
    <path
       d="m 80.168672,90.051764 q 1.290859,3.872577 2.377898,7.473395 1.222919,-3.600818 2.581718,-7.405455 L 101.50181,46.50226 q 1.3588,-3.804637 2.10614,-6.046655 0.81528,-2.242018 0.81528,-3.532877 0,-1.154979 -0.6794,-1.766439 -0.61146,-0.611459 -1.90232,-0.951159 L 95.38722,32.370751 95.1834,28.769934 q 9.85129,0.27176 16.03383,0.27176 6.45429,0 14.67503,-0.27176 l 0.40763,3.464938 -7.33751,2.106138 q -2.51378,0.815279 -3.7367,2.513778 -1.22292,1.698498 -2.71759,5.299315 L 79.149573,124.22556 72.015879,124.90496 42.869643,42.969383 Q 41.171144,38.281527 39.744405,36.650968 38.385606,34.952469 35.803889,34.13719 l -6.590175,-1.902318 -0.27176,-3.464938 q 9.239833,0.27176 18.479665,0.27176 12.29713,0 23.9828,-0.27176 l 0.3397,3.464938 -6.658114,1.902318 q -1.358799,0.40764 -1.970259,1.019099 -0.611459,0.61146 -0.611459,1.834379 0,1.358799 0.679399,3.600817 0.6794,2.174078 1.970259,5.842835 z"
       id="path20073"
       style="fill:#050552;fill-opacity:1" />
  </g>
</svg>
