<svg width="100" height="100" version="1.1" id="svg4770" xmlns="http://www.w3.org/2000/svg"><g id="icon"><path id="path1140" style="fill-opacity:1;stroke:none;stroke-width:5;stroke-linecap:butt;stroke-linejoin:miter;stroke-miterlimit:4;stroke-dasharray:none;stroke-opacity:1" d="M50 23.75c-3.782 0-7.566.814-11.418 2.416l5.715 5.715a18.879 18.879 0 0 1 11.406 0l5.715-5.715C57.566 24.564 53.782 23.75 50 23.75ZM23.588 36.004C19.256 39.792 14.754 44.454 10 50c4.757 5.55 9.26 10.202 13.594 13.99l8.287-8.287a18.879 18.879 0 0 1 0-11.406zm52.824 0-8.293 8.293a18.878 18.878 0 0 1 0 11.406l8.293 8.295C80.744 60.209 85.245 55.547 90 50c-4.754-5.547-9.256-10.208-13.588-13.996ZM44.297 68.119l-5.715 5.715c7.704 3.202 15.132 3.205 22.836 0l-5.715-5.715a18.879 18.879 0 0 1-11.406 0Z"/><path style="stroke-width:3.77953;-inkscape-stroke:none" d="m86.465 6.465-80 80 7.07 7.07 80-80z" id="path1199"/><path style="stroke-width:3.77953;-inkscape-stroke:none" d="m93.535 86.465-80-80-7.07 7.07 80 80z" id="path1199-3"/></g></svg>