<svg width="271.454" height="120.815" viewBox="0 0 300 120" version="1.1" id="svg4770" xmlns="http://www.w3.org/2000/svg"><g id="icon" transform="translate(18.639 30.442)"><g id="a" transform="rotate(30 24 30.608)"><animate attributeType="CSS" attributeName="opacity" from="0" to="0" values="0; 0; 1; 1; 0; 0" keyTimes="0; 0; 0.1; 0.5; 0.6; 1" dur="2s" begin="0s" repeatCount="indefinite"/><path style="stroke-width:1px;-inkscape-stroke:none" d="M12 16h8v54l10 4 10-4V16h8v-4H37v56l-7 3-7-3V12H12Z" id="path1867"/><path style="stroke-width:1px;-inkscape-stroke:none" d="M23 23h14v-3h-3v-54h5v-3H21v3h5v54h-3z" id="path5568"/><path style="-inkscape-stroke:none" d="M23 46.5v1h7v-1z" id="path6301"/><path style="-inkscape-stroke:none" d="M23 50.5v1h4v-1z" id="path6303"/><path style="-inkscape-stroke:none" d="M23 42.5v1h4v-1z" id="path6303-3"/><path style="-inkscape-stroke:none" d="M23 54.5v1h7v-1z" id="path6305"/><path style="-inkscape-stroke:none" d="M23 30.5v1h7v-1z" id="path6301-6"/><path style="-inkscape-stroke:none" d="M23 34.5v1h4v-1z" id="path6303-7"/><path style="-inkscape-stroke:none" d="M23 26.5v1h4v-1z" id="path6303-3-5"/><path style="-inkscape-stroke:none" d="M23 38.5v1h7v-1z" id="path6305-3"/><path style="-inkscape-stroke:none" d="M23 58.5v1h4v-1z" id="path6307"/><path style="-inkscape-stroke:none" d="M23 62.5v1h7v-1z" id="path6309"/><path style="-inkscape-stroke:none" d="M23 66.5v1h4v-1z" id="path6311"/><path style="stroke-width:1px;-inkscape-stroke:none" d="m28 73 1 3h2l1-3z" id="path6467"/><path style="stroke-width:1px;-inkscape-stroke:none" d="M29 76v18l1 1 1-1V76Z" id="path6673"/></g><g id="b" transform="rotate(30 50.5 129.507)"><animate attributeType="CSS" attributeName="opacity" from="0" to="0" values="0; 0; 1; 1; 0; 0" keyTimes="0; 0.1; 0.2; 0.6; 0.7; 1" dur="2s" begin="0s" repeatCount="indefinite"/><path style="stroke-width:1px;-inkscape-stroke:none" d="M12 16h8v54l10 4 10-4V16h8v-4H37v56l-7 3-7-3V12H12Z" id="path1867-6"/><path style="stroke-width:1px;-inkscape-stroke:none" d="M23 35h14v-3h-3v-54h5v-3H21v3h5v54h-3z" id="path5568-2"/><path style="-inkscape-stroke:none" d="M23 46.5v1h7v-1z" id="path6301-9"/><path style="-inkscape-stroke:none" d="M23 50.5v1h4v-1z" id="path6303-1"/><path style="-inkscape-stroke:none" d="M23 42.5v1h4v-1z" id="path6303-3-2"/><path style="-inkscape-stroke:none" d="M23 54.5v1h7v-1z" id="path6305-7"/><path style="-inkscape-stroke:none" d="M23 38.5v1h7v-1z" id="path6305-3-6"/><path style="-inkscape-stroke:none" d="M23 58.5v1h4v-1z" id="path6307-0"/><path style="-inkscape-stroke:none" d="M23 62.5v1h7v-1z" id="path6309-6"/><path style="-inkscape-stroke:none" d="M23 66.5v1h4v-1z" id="path6311-2"/><path style="stroke-width:1px;-inkscape-stroke:none" d="m28 73 1 3h2l1-3z" id="path6467-6"/><path style="stroke-width:1px;-inkscape-stroke:none" d="M29 76v18l1 1 1-1V76Z" id="path6673-1"/></g><g id="c" transform="rotate(30 77 228.406)"><animate attributeType="CSS" attributeName="opacity" from="0" to="0" values="0; 0; 1; 1; 0; 0" keyTimes="0; 0.2; 0.3; 0.7; 0.8; 1" dur="2s" begin="0s" repeatCount="indefinite"/><path style="stroke-width:1px;-inkscape-stroke:none" d="M12 16h8v54l10 4 10-4V16h8v-4H37v56l-7 3-7-3V12H12Z" id="path1867-6-7"/><path style="stroke-width:1px;-inkscape-stroke:none" d="M23 47h14v-3h-3v-54h5v-3H21v3h5v54h-3z" id="path5568-2-9"/><path style="-inkscape-stroke:none" d="M23 50.5v1h4v-1z" id="path6303-1-0"/><path style="-inkscape-stroke:none" d="M23 54.5v1h7v-1z" id="path6305-7-3"/><path style="-inkscape-stroke:none" d="M23 58.5v1h4v-1z" id="path6307-0-9"/><path style="-inkscape-stroke:none" d="M23 62.5v1h7v-1z" id="path6309-6-2"/><path style="-inkscape-stroke:none" d="M23 66.5v1h4v-1z" id="path6311-2-2"/><path style="stroke-width:1px;-inkscape-stroke:none" d="m28 73 1 3h2l1-3z" id="path6467-6-8"/><path style="stroke-width:1px;-inkscape-stroke:none" d="M29 76v18l1 1 1-1V76Z" id="path6673-1-9"/></g><g id="d" transform="rotate(30 103.5 327.306)"><animate attributeType="CSS" attributeName="opacity" from="0" to="0" values="0; 0; 1; 1; 0; 0" keyTimes="0; 0.3; 0.4; 0.8; 0.9; 1" dur="2s" begin="0s" repeatCount="indefinite"/><path style="stroke-width:1px;-inkscape-stroke:none" d="M12 16h8v54l10 4 10-4V16h8v-4H37v56l-7 3-7-3V12H12Z" id="path1867-6-7-3"/><path style="stroke-width:1px;-inkscape-stroke:none" d="M23 59h14v-3h-3V2h5v-3H21v3h5v54h-3z" id="path5568-2-9-6"/><path style="-inkscape-stroke:none" d="M23 62.5v1h7v-1z" id="path6309-6-2-1"/><path style="-inkscape-stroke:none" d="M23 66.5v1h4v-1z" id="path6311-2-2-9"/><path style="stroke-width:1px;-inkscape-stroke:none" d="m28 73 1 3h2l1-3z" id="path6467-6-8-4"/><path style="stroke-width:1px;-inkscape-stroke:none" d="M29 76v18l1 1 1-1V76Z" id="path6673-1-9-7"/></g><g id="e" transform="rotate(30 130 426.205)"><animate attributeType="CSS" attributeName="opacity" from="0" to="0" values="0; 0; 1; 1; 0; 0" keyTimes="0; 0.4; 0.5; 0.9; 1; 1" dur="2s" begin="0s" repeatCount="indefinite"/><path style="stroke-width:1px;-inkscape-stroke:none" d="M12 16h8v54l10 4 10-4V16h8v-4H37v56l-7 3-7-3V12H12Z" id="path1867-6-7-3-4"/><path style="stroke-width:1px;-inkscape-stroke:none" d="M23 71h14v-3h-3V14h5v-3H21v3h5v54h-3z" id="path5568-2-9-6-5"/><path style="stroke-width:1px;-inkscape-stroke:none" d="m28 73 1 3h2l1-3z" id="path6467-6-8-4-0"/><path style="stroke-width:1px;-inkscape-stroke:none" d="M29 76v18l1 1 1-1V76Z" id="path6673-1-9-7-6"/></g></g></svg>