<?xml version="1.0" encoding="UTF-8" standalone="no"?>
<!-- Created with Inkscape (http://www.inkscape.org/) -->

<svg
   xmlns="http://www.w3.org/2000/svg"
   viewBox="0 0 13.571769 13.57177"
   version="1.1"
   id="icon"
>
  <g
     transform="translate(-68.638146,-81.261774)">
    <path
       d="m 72.402232,84.68459 a 3.2650738,3.2650738 0 0 0 -3.26342,3.263421 v 0.197051 a 3.2650738,3.2650738 0 0 0 3.26342,3.265666 h 6.042914 a 3.2650738,3.2650738 0 0 0 3.265666,-3.265666 V 87.948011 A 3.2650738,3.2650738 0 0 0 78.445146,84.68459 Z m 0.08926,0.519857 h 5.864388 a 2.7599055,2.7599055 0 0 1 2.758721,2.75816 v 0.167859 A 2.7599055,2.7599055 0 0 1 78.35588,90.890872 H 72.491492 A 2.7599055,2.7599055 0 0 1 69.73277,88.130466 v -0.167859 a 2.7599055,2.7599055 0 0 1 2.758722,-2.75816 z m 5.753792,0.447436 c -1.328164,0 -2.405039,1.076314 -2.405039,2.404478 0,1.328171 1.076875,2.405039 2.405039,2.405039 1.328171,0 2.405039,-1.076868 2.405039,-2.405039 0,-1.328164 -1.076868,-2.404478 -2.405039,-2.404478 z m 0.902171,1.502869 c 0.07693,0 0.153516,0.02944 0.212209,0.08814 0.117387,0.117396 0.117387,0.307584 0,0.42498 l -1.20252,1.20252 c -0.117395,0.117386 -0.307584,0.117386 -0.42498,0 l -0.601259,-0.60126 c -0.117393,-0.117387 -0.117393,-0.307584 0,-0.42498 0.117396,-0.117393 0.307584,-0.117393 0.42498,0 l 0.38905,0.388489 0.989749,-0.989749 c 0.05869,-0.0587 0.135838,-0.08814 0.212771,-0.08814 z"
    />
  </g>
</svg>
