<?xml version="1.0" encoding="UTF-8" standalone="no"?>
<!-- Created with Inkscape (http://www.inkscape.org/) -->

<svg
   xmlns="http://www.w3.org/2000/svg"

   viewBox="0 0 13.57177 13.57177"
   version="1.1"
   id="icon"
>
  <g
     id="layer1"
     transform="translate(-68.638146,-81.261774)">
    <g
       id="g1699"
       transform="matrix(1.086376,0,0,1.086376,-7.0580845,-10.528346)">
      <path
         d="M 15.134766,3.78125 A 11.359268,11.359268 0 0 0 3.78125,15.134766 v 0.685546 A 11.359268,11.359268 0 0 0 15.134766,27.181641 H 36.158203 A 11.359268,11.359268 0 0 0 47.519531,15.820312 V 15.134766 A 11.359268,11.359268 0 0 0 36.158203,3.78125 Z m 0.310546,1.8085938 h 20.402344 a 9.6017755,9.6017755 0 0 1 9.597656,9.5957032 v 0.583984 a 9.6017755,9.6017755 0 0 1 -9.597656,9.603516 H 15.445312 A 9.6017755,9.6017755 0 0 1 5.8476562,15.769531 V 15.185547 A 9.6017755,9.6017755 0 0 1 15.445312,5.5898438 Z m 0.386719,1.5566406 c -4.620737,0 -8.3671872,3.7445196 -8.3671872,8.3652346 0,4.620737 3.7464502,8.367187 8.3671872,8.367187 4.620715,0 8.367188,-3.74645 8.367188,-8.367187 0,-4.620715 -3.746473,-8.3652346 -8.367188,-8.3652346 z"
         transform="matrix(0.26458333,0,0,0.26458333,69.138146,86.642254)"
       />
    </g>
  </g>
</svg>
